<svg id="Capa_1" enable-background="new 0 0 512 512" height="512" viewBox="0 0 512 512" width="512" xmlns="http://www.w3.org/2000/svg" xmlns:xlink="http://www.w3.org/1999/xlink"><linearGradient id="SVGID_1_" gradientUnits="userSpaceOnUse" x1="45" x2="45" y1="421" y2="91"><stop offset="0" stop-color="#addcff"/><stop offset=".5028" stop-color="#eaf6ff"/><stop offset="1" stop-color="#eaf6ff"/></linearGradient><linearGradient id="SVGID_2_" gradientUnits="userSpaceOnUse" x1="316" x2="316" y1="421" y2="91"><stop offset="0" stop-color="#5558ff"/><stop offset="1" stop-color="#00c0ff"/></linearGradient><g><g><g><path d="m75 91h-60c-8.284 0-15 6.716-15 15v60c0 8.284 6.716 15 15 15h60c8.284 0 15-6.716 15-15v-60c0-8.284-6.716-15-15-15zm0 120h-60c-8.284 0-15 6.716-15 15v60c0 8.284 6.716 15 15 15h60c8.284 0 15-6.716 15-15v-60c0-8.284-6.716-15-15-15zm0 120h-60c-8.284 0-15 6.716-15 15v60c0 8.284 6.716 15 15 15h60c8.284 0 15-6.716 15-15v-60c0-8.284-6.716-15-15-15z" fill="url(#SVGID_1_)"/></g></g><g><g><path d="m497 91h-362c-8.284 0-15 6.716-15 15v60c0 8.284 6.716 15 15 15h362c8.284 0 15-6.716 15-15v-60c0-8.284-6.716-15-15-15zm0 120h-362c-8.284 0-15 6.716-15 15v60c0 8.284 6.716 15 15 15h362c8.284 0 15-6.716 15-15v-60c0-8.284-6.716-15-15-15zm0 120h-362c-8.284 0-15 6.716-15 15v60c0 8.284 6.716 15 15 15h362c8.284 0 15-6.716 15-15v-60c0-8.284-6.716-15-15-15z" fill="url(#SVGID_2_)"/></g></g></g></svg>